<?xml version="1.0" encoding="UTF-8"?><!DOCTYPE svg PUBLIC "-//W3C//DTD SVG 1.1//EN" "http://www.w3.org/Graphics/SVG/1.1/DTD/svg11.dtd"><svg xmlns="http://www.w3.org/2000/svg" xmlns:xlink="http://www.w3.org/1999/xlink"><defs><path id="arrow-down-a" d="M7.41 8.59L12 13.17l4.59-4.58L18 10l-6 6-6-6z"/><path d="M10 0C4.47 0 0 4.47 0 10s4.47 10 10 10 10-4.47 10-10S15.53 0 10 0zm5 13.59L13.59 15 10 11.41 6.41 15 5 13.59 8.59 10 5 6.41 6.41 5 10 8.59 13.59 5 15 6.41 11.41 10 15 13.59z" id="cancel-a"/><path id="check-a" d="M9 16.17L4.83 12l-1.42 1.41L9 19 21 7l-1.41-1.41z"/><path d="M19 5v14H5V5h14m0-2H5c-1.1 0-2 .9-2 2v14c0 1.1.9 2 2 2h14c1.1 0 2-.9 2-2V5c0-1.1-.9-2-2-2z" id="checkbox-blank-a"/><path d="M19 3H5a2 2 0 00-2 2v14a2 2 0 002 2h14a2 2 0 002-2V5a2 2 0 00-2-2zm-9 14l-5-5 1.41-1.41L10 14.17l7.59-7.59L19 8l-9 9z" id="checkbox-a"/><path d="M3 17.25V21h3.75L17.81 9.94l-3.75-3.75L3 17.25zM20.71 7.04a.996.996 0 000-1.41l-2.34-2.34a.996.996 0 00-1.41 0l-1.83 1.83 3.75 3.75 1.83-1.83z" id="edit-a"/><path d="M18 0H2C.9 0 .01.9.01 2L0 14c0 1.1.9 2 2 2h16c1.1 0 2-.9 2-2V2c0-1.1-.9-2-2-2zm0 4l-8 5-8-5V2l8 5 8-5v2z" id="email-a"/><path d="M19 3H5c-1.1 0-2 .9-2 2v14c0 1.1.9 2 2 2h14c1.1 0 2-.9 2-2V5c0-1.1-.9-2-2-2zm-2 10H7v-2h10v2z" id="ind-checkbox-a"/><path d="M16 16H2V2h7V0H2a2 2 0 00-2 2v14a2 2 0 002 2h14c1.1 0 2-.9 2-2V9h-2v7zM11 0v2h3.59l-9.83 9.83 1.41 1.41L16 3.41V7h2V0h-7z" id="open-in-a"/><path id="return-a" d="M17 1v4H3.83l3.58-3.59L6 0 0 6l6 6 1.41-1.41L3.83 7H19V1z"/><path d="M15.5 14h-.79l-.28-.27A6.471 6.471 0 0016 9.5 6.5 6.5 0 109.5 16c1.61 0 3.09-.59 4.23-1.57l.27.28v.79l5 4.99L20.49 19l-4.99-5zm-6 0C7.01 14 5 11.99 5 9.5S7.01 5 9.5 5 14 7.01 14 9.5 11.99 14 9.5 14z" id="search-a"/><path id="send-a" d="M.01 18L21 9 .01 0 0 7l15 2-15 2z"/></defs><symbol id="arrow-down"><use xlink:href="#arrow-down-a" fill-rule="evenodd"/></symbol><symbol id="cancel"><use xlink:href="#cancel-a" transform="translate(2 2)" fill-rule="evenodd"/></symbol><symbol id="check"><use xlink:href="#check-a" fill-rule="evenodd"/></symbol><symbol id="checkbox-blank"><use xlink:href="#checkbox-blank-a" fill-rule="evenodd"/></symbol><symbol id="checkbox"><use xlink:href="#checkbox-a" fill-rule="evenodd"/></symbol><symbol id="dot"><circle cx="12" cy="12" r="4" fill-rule="evenodd"/></symbol><symbol id="edit"><use xlink:href="#edit-a" fill-rule="evenodd"/></symbol><symbol id="email"><use xlink:href="#email-a" transform="translate(2 4)" fill-rule="evenodd"/></symbol>
<symbol id="help">
<path d="M8 0C3.584 0 0 3.584 0 8s3.584 8 8 8 8-3.584 8-8-3.584-8-8-8zm.8 13.6H7.2V12h1.6v1.6zm1.656-6.2l-.72.736C9.16 8.72 8.8 9.2 8.8 10.4H7.2V10c0-.88.36-1.68.936-2.264l.992-1.008C9.424 6.44 9.6 6.04 9.6 5.6 9.6 4.72 8.88 4 8 4c-.88 0-1.6.72-1.6 1.6H4.8a3.2 3.2 0 116.4 0c0 .704-.288 1.344-.744 1.8z" fill-rule="nonzero"/>
</symbol><symbol id="ind-checkbox"><use xlink:href="#ind-checkbox-a" fill-rule="evenodd"/></symbol><symbol id="open-in"><use xlink:href="#open-in-a" transform="translate(3 3)" fill-rule="evenodd"/></symbol><symbol id="return"><use xlink:href="#return-a" transform="translate(2 6)" fill-rule="evenodd"/></symbol><symbol id="search"><use xlink:href="#search-a" fill-rule="evenodd"/></symbol><symbol id="send"><use xlink:href="#send-a" transform="translate(2 3)" fill-rule="evenodd"/></symbol></svg>